PathFileType	4	(X/Y/Z)	TRAIL_071_EP_01_markers.trc
DataRate	CameraRate	NumFrames	NumMarkers	Units	OrigDataRate	OrigDataStartFrame	OrigNumFrames
200	200	4	44	mm	200	1	270
Frame#	Time	RSH			LSH			C7			LELB			LWR			RELB			RWR			RASI			LASI			SACR			P1			P2			LTHLP			LTHLD			LTHAP			LTHAD			LLEPI			LPAT			LTIAP			LTIAD			LTILAT			LLMAL			LHEEL			LMFS			LMFL			LP5MT			LP1MT			LTOE			RTHLP			RTHLD			RTHAP			RTHAD			RLEPI			RPAT			RTIAP			RTIAD			RTILAT			RLMAL			RHEEL			RMFS			RMFL			RP5MT			RP1MT			RTOE			
		X1	Y1	Z1	X2	Y2	Z2	X3	Y3	Z3	X4	Y4	Z4	X5	Y5	Z5	X6	Y6	Z6	X7	Y7	Z7	X8	Y8	Z8	X9	Y9	Z9	X10	Y10	Z10	X11	Y11	Z11	X12	Y12	Z12	X13	Y13	Z13	X14	Y14	Z14	X15	Y15	Z15	X16	Y16	Z16	X17	Y17	Z17	X18	Y18	Z18	X19	Y19	Z19	X20	Y20	Z20	X21	Y21	Z21	X22	Y22	Z22	X23	Y23	Z23	X24	Y24	Z24	X25	Y25	Z25	X26	Y26	Z26	X27	Y27	Z27	X28	Y28	Z28	X29	Y29	Z29	X30	Y30	Z30	X31	Y31	Z31	X32	Y32	Z32	X33	Y33	Z33	X34	Y34	Z34	X35	Y35	Z35	X36	Y36	Z36	X37	Y37	Z37	X38	Y38	Z38	X39	Y39	Z39	X40	Y40	Z40	X41	Y41	Z41	X42	Y42	Z42	X43	Y43	Z43	X44	Y44	Z44
1	        0.0000000000	      172.7948188782	     1507.6016187668	      157.1276187897	      108.4902286530	     1522.4794149399	     -161.0353589058	       59.1897964478	     1528.6184549332	       13.1459236145	      -89.8139476776	     1313.8877153397	     -307.2826564312	      103.5506725311	     1127.5833845139	     -264.3068134785	      167.0655012131	     1187.3056888580	      285.8306765556	      334.1314792633	     1231.0743331909	       69.6071386337	      160.7012748718	      982.6364517212	      129.4655203819	      183.3633184433	     1028.6147594452	     -127.1252632141	        0.0000000000	     1063.3832216263	        0.0000000000	        2.0713806152	     1067.2206878662	      -46.1625456810	        2.3767948151	     1059.5031976700	       41.4911508560	      202.3519277573	      769.9967026711	     -175.7545173168	      256.1489343643	      674.0028262138	     -154.9776196480	      288.3849143982	      811.5786910057	      -93.0029153824	      328.8034200668	      712.5327587128	      -88.7782573700	      288.4000539780	      585.4721069336	     -143.5720920563	      358.2731485367	      589.1695022583	      -95.6150889397	      306.4382076263	      410.2341532707	     -104.8896312714	      279.1196107864	      306.7161142826	     -112.3585700989	      237.9071712494	      372.1514940262	     -168.0402755737	      205.8093547821	      173.4601110220	     -147.6728916168	      141.6108608246	      126.6373544931	      -99.5771288872	      317.4067735672	      142.5804942846	     -102.0256280899	      293.5360670090	       92.7854776382	     -186.1279308796	      354.8581600189	       85.8297422528	     -186.4852011204	      354.7859191895	       96.1028859019	      -82.4174880981	      394.0749168396	      106.2445044518	     -109.9442243576	       -7.9503059387	      740.3157353401	      140.5460834503	      -49.4725704193	      655.3184390068	      115.5415773392	       90.4610157013	      700.6889581680	       67.3946738243	       35.6814861298	      620.8562254906	       44.9265241623	     -107.3317527771	      553.2203316689	       88.1873369217	      -56.0638904572	      502.5475025177	       39.2684936523	     -170.9320545197	      411.3672971725	       43.8700914383	     -241.6265010834	      330.5431306362	       30.1749110222	     -253.5953521729	      418.1466102600	       86.9727134705	     -381.1473846436	      251.9579529762	       38.2659435272	     -423.3410358429	      286.2058281898	      -16.9914364815	     -333.4341049194	      132.5311362743	      -22.7752923965	     -404.1266441345	      117.1397939324	       44.6868538857	     -384.4206333160	       67.5743892789	       45.0515747070	     -355.7336330414	       73.6282020807	      -55.8244585991	     -326.5717029572	       37.5783629715	      -21.6398835182
2	        0.0049999999	      190.8968687057	     1509.7370147705	      155.9959650040	      125.7274150848	     1524.0924358368	     -161.3582670689	       76.8041610718	     1529.9643278122	       12.9550695419	      -75.4125118256	     1315.7463073730	     -304.2193949223	      120.0609207153	     1131.0925483704	     -265.2901411057	      186.0021352768	     1190.1326179504	      285.8781218529	      350.7711887360	     1232.5954437256	       67.5780773163	      179.3853044510	      984.5265150070	      129.3606758118	      201.3826370239	     1030.9567451477	     -126.9649267197	       18.6629295349	     1065.4034614563	        0.4942417145	       20.3423500061	     1069.0568685532	      -45.6590652466	       21.1119651794	     1061.5377426147	       41.9917702675	      217.4633741379	      769.8391675949	     -175.0284433365	      271.1611986160	      673.3306646347	     -154.8070311546	      307.0310354233	      811.6449713707	      -94.3309664726	      345.5562591553	      711.6371989250	      -89.0593528748	      304.0369749069	      584.5378637314	     -143.8503861427	      373.5252618790	      588.9493823051	      -95.8976149559	      327.6995420456	      410.0235700607	     -104.5535802841	      304.9741983414	      305.2598237991	     -111.0414266586	      261.6044282913	      368.6269819736	     -167.8686738014	      239.3567562103	      168.2576835155	     -146.4959383011	      175.8143901825	      119.4183230400	      -98.8315343857	      350.7088422775	      142.9160237312	      -99.1206169128	      330.6294679642	       90.7579064369	     -182.4795007706	      392.3231363297	       87.0738625526	     -182.5450062752	      389.6715641022	       98.5231548548	      -78.1781077385	      429.0254116058	      109.9939271808	     -105.4266095161	        8.0912113190	      743.9100742340	      140.8698558807	      -34.3992710114	      659.4156622887	      115.7245039940	      106.1592102051	      702.6457190514	       68.2795047760	       50.7392883301	      622.8316426277	       46.2432503700	      -93.3604240417	      557.8432679176	       88.8965129852	      -42.2272682190	      504.6975612640	       42.7165627480	     -158.0259799957	      415.9803688526	       44.7533130646	     -229.9950122833	      336.2306356430	       31.6453576088	     -241.1694526672	      424.5253205299	       87.8727436066	     -370.3777790070	      259.8921060562	       39.4740104675	     -410.9904766083	      295.2348887920	      -15.5456066132	     -325.5515098572	      139.0498280525	      -21.5062499046	     -397.0725536346	      125.0482797623	       44.9784398079	     -383.7187290192	       71.2209045887	       42.3303246498	     -349.5194911957	       79.3903842568	      -54.8566579819	     -324.2502212524	       37.1191389859	      -22.1514701843
3	        0.0099999998	      208.9506387711	     1511.5048885345	      155.0267338753	      143.0540084839	     1525.3226757050	     -161.6497933865	       94.4271087646	     1531.1022996902	       12.7025246620	      -56.9856166840	     1316.5377378464	     -303.3360838890	      136.7347240448	     1134.1779232025	     -266.3332223892	      204.7657966614	     1192.5630569458	      286.0177755356	      367.2825098038	     1233.4985733032	       65.8037066460	      197.8368759155	      986.2613677979	      129.4338703156	      219.4179296494	     1032.8148603439	     -127.0430684090	       37.1611118317	     1067.1252012253	        1.0555386543	       38.4600162506	     1070.5382823944	      -45.1843738556	       39.6158695221	     1063.3537769318	       42.4567461014	      233.1759929657	      769.6375846863	     -175.3498017788	      286.5149974823	      672.0996499062	     -154.7780036926	      325.3608942032	      810.8652830124	      -95.7394838333	      362.0773553848	      710.0051045418	      -89.3697738647	      319.4408416748	      583.1624865532	     -144.2399024963	      388.5629177094	      587.9907608032	      -96.5820550919	      348.4925031662	      409.6098244190	     -104.2296886444	      330.4691314697	      304.1098713875	     -110.4115843773	      284.7295999527	      365.2535080910	     -167.5713062286	      270.8790302277	      163.6295616627	     -145.1256871223	      209.4492912292	      112.9326522350	      -98.0530381203	      383.2476139069	      143.7838077545	      -96.3305830956	      367.9375648499	       89.4578397274	     -178.5154044628	      428.4877777100	       88.4286984801	     -178.0419051647	      423.0266809464	      101.4188304543	      -73.6500620842	      462.7774953842	      114.2313107848	     -100.6536483765	       24.3215560913	      747.2262382507	      141.3620710373	      -19.2601680756	      662.9917621613	      116.2765622139	      122.3814487457	      704.4007182121	       69.2434906960	       66.6444301605	      624.5886087418	       47.6571917534	      -78.3879756927	      561.7853999138	       89.4052982330	      -28.1207561493	      506.9816112518	       45.1143980026	     -143.6183452606	      420.4599261284	       45.6222295761	     -218.3563709259	      341.5054678917	       32.3683619499	     -226.8493175507	      430.1130473614	       88.0358219147	     -360.3932857513	      267.2656178474	       41.0832166672	     -399.8901844025	      303.8096129894	      -13.8158798218	     -317.8491592407	      145.5055177212	      -20.7913517952	     -390.1255130768	      132.6988786459	       45.4409122467	     -377.4888515472	       78.4103870392	       42.0887470245	     -343.5654640198	       86.3605141640	      -54.5488595963	     -320.2166557312	       42.7030511200	      -22.5821733475
4	        0.0150000006	      227.1794080734	     1513.0313634872	      153.9347767830	      160.3949069977	     1526.5102386475	     -162.2009277344	      112.0598316193	     1532.0031642914	       12.3826861382	      -45.6161499023	     1318.4535503387	     -298.0547845364	      153.5112857819	     1137.2431516647	     -267.3684060574	      223.4888076782	     1194.7823762894	      286.1479520798	      383.9561939240	     1233.8211536407	       64.0067458153	      216.2026166916	      987.8279566765	      129.4980049133	      237.3025417328	     1033.8977575302	     -127.1929144859	       55.0360679626	     1068.3964490891	        1.5521049500	       56.5230846405	     1071.6890096664	      -44.7359681129	       58.0930709839	     1064.8504495621	       42.8602099419	      248.3372688293	      768.6974406242	     -174.5558977127	      301.9089698792	      670.6702113152	     -155.0461649895	      343.1396484375	      809.3470335007	      -96.0326790810	      378.2942295074	      707.8552842140	      -89.7530317307	      334.5458507538	      581.4387202263	     -144.5346474648	      403.2055139542	      586.9869589806	      -97.0256924629	      368.7967061996	      409.0646803379	     -103.9982438087	      355.2782535553	      303.1064271927	     -109.5755100250	      307.2266578674	      362.0491325855	     -167.1701371670	      303.1239509583	      159.6387475729	     -143.9554095268	      242.4393892288	      107.2313115001	      -97.1835851669	      414.8586988449	      144.8191553354	      -93.4883952141	      401.6263484955	       88.3179530501	     -175.3295660019	      462.9007577896	       89.3104299903	     -172.6244091988	      456.7209482193	      104.8368960619	      -69.0591931343	      495.3868389130	      118.6352893710	      -95.9101319313	       41.1460399628	      750.0124573708	      141.6673660278	       -2.7401447296	      666.2228107452	      116.4206266403	      139.3034458160	      705.9079408646	       70.0483322144	       84.7017765045	      627.4558901787	       50.5105257034	      -62.6835823059	      564.9650096893	       90.1903510094	      -13.2038593292	      508.8856816292	       46.8044877052	     -128.2596588135	      424.9581992626	       45.5284714699	     -206.5472602844	      346.3529944420	       33.0284237862	     -212.9440307617	      435.0623190403	       88.6037945747	     -349.8430252075	      274.7496068478	       41.9873595238	     -389.4212245941	      312.4253451824	      -12.3438239098	     -310.2841377258	      152.7771502733	      -20.6255912781	     -381.9906711578	      141.0925090313	       45.6888079643	     -370.1894283295	       86.5742340684	       43.0265069008	     -336.8127346039	       94.5795774460	      -54.7022819519	     -312.0167255402	       52.9400482774	      -24.0809917450
